<svg width="58" height="21" viewBox="0 0 58 21" fill="none" xmlns="http://www.w3.org/2000/svg">
<path d="M6.8817 20.2687C5.1881 20.2021 3.80248 19.7432 2.71904 18.891C2.51227 18.7282 2.01956 18.2401 1.85426 18.0343C1.41491 17.4873 1.11621 16.9549 0.916983 16.3643C0.303923 14.5462 0.619443 12.1605 1.81946 9.54214C2.84693 7.30052 4.43236 5.07729 7.19838 1.99812C7.60583 1.54503 8.81919 0.219925 8.82702 0.219925C8.82992 0.219925 8.7638 0.333343 8.68057 0.471452C7.96137 1.66418 7.34599 3.0691 7.01075 4.28538C6.47222 6.23699 6.53718 7.91182 7.20099 9.2105C7.6589 10.1052 8.44393 10.8802 9.32669 11.3086C10.8721 12.0582 13.1347 12.1203 15.8978 11.49C16.088 11.4464 25.5148 8.96874 36.8462 5.98404C48.1777 2.99905 57.4504 0.55874 57.4519 0.56075C57.4551 0.563334 31.1257 11.7183 17.4577 17.5054C15.2932 18.4216 14.7143 18.653 13.6967 19.0068C11.0954 19.9112 8.76525 20.3428 6.8817 20.2687Z" fill="#131212"/>
</svg>
