<svg width="20" height="22" viewBox="0 0 20 22" fill="none" xmlns="http://www.w3.org/2000/svg">
<path d="M10 21.1816C4.477 21.1816 0 16.4642 0 10.6445C0 4.82489 4.477 0.107422 10 0.107422C15.523 0.107422 20 4.82489 20 10.6445C20 16.4642 15.523 21.1816 10 21.1816ZM5.013 17.2365C6.42855 18.429 8.18768 19.0773 10 19.0742C11.97 19.0742 13.773 18.324 15.167 17.0806C14.5157 16.3764 13.7371 15.8171 12.877 15.4355C12.017 15.054 11.0931 14.8581 10.16 14.8594C9.19259 14.8582 8.2355 15.0689 7.34947 15.4781C6.46343 15.8874 5.66778 16.4862 5.013 17.2365ZM3.616 15.7234C4.45645 14.7836 5.47067 14.0351 6.59614 13.524C7.72161 13.013 8.93448 12.7502 10.16 12.752C11.3417 12.7503 12.512 12.9947 13.6037 13.471C14.6955 13.9473 15.6873 14.6461 16.522 15.5274C17.3781 14.2578 17.8836 12.7632 17.9826 11.2092C18.0815 9.6553 17.77 8.10286 17.0825 6.72415C16.395 5.34544 15.3585 4.19437 14.088 3.39863C12.8174 2.60289 11.3625 2.1936 9.8846 2.21616C8.40672 2.23873 6.96366 2.69226 5.71552 3.52646C4.46738 4.36065 3.46296 5.54289 2.81369 6.942C2.16442 8.34112 1.89569 9.90241 2.03732 11.4527C2.17894 13.0029 2.72537 14.4815 3.616 15.7245V15.7234ZM10 11.6982C8.93913 11.6982 7.92172 11.2542 7.17157 10.4637C6.42143 9.67331 6 8.60124 6 7.4834C6 6.36555 6.42143 5.29349 7.17157 4.50305C7.92172 3.71262 8.93913 3.26855 10 3.26855C11.0609 3.26855 12.0783 3.71262 12.8284 4.50305C13.5786 5.29349 14 6.36555 14 7.4834C14 8.60124 13.5786 9.67331 12.8284 10.4637C12.0783 11.2542 11.0609 11.6982 10 11.6982ZM10 9.59082C10.5304 9.59082 11.0391 9.36879 11.4142 8.97357C11.7893 8.57835 12 8.04232 12 7.4834C12 6.92448 11.7893 6.38844 11.4142 5.99323C11.0391 5.59801 10.5304 5.37598 10 5.37598C9.46957 5.37598 8.96086 5.59801 8.58579 5.99323C8.21071 6.38844 8 6.92448 8 7.4834C8 8.04232 8.21071 8.57835 8.58579 8.97357C8.96086 9.36879 9.46957 9.59082 10 9.59082Z" fill="black"/>
</svg>
